<?xml version="1.0" encoding="UTF-8"?>
<!DOCTYPE svg PUBLIC "-//W3C//DTD SVG 1.1//EN" "http://www.w3.org/Graphics/SVG/1.1/DTD/svg11.dtd">
<svg xmlns="http://www.w3.org/2000/svg" version="1.1" width="1920px" height="1260px" style="shape-rendering:geometricPrecision; text-rendering:geometricPrecision; image-rendering:optimizeQuality; fill-rule:evenodd; clip-rule:evenodd" xmlns:xlink="http://www.w3.org/1999/xlink">
<g><path style="opacity:0.998" fill="#010201" d="M 117.5,-0.5 C 496.5,-0.5 875.5,-0.5 1254.5,-0.5C 1475.33,0.499748 1696.33,0.833081 1917.5,0.5C 1917.67,252.167 1917.5,503.834 1917,755.5C 1916.67,761.5 1916.33,767.5 1916,773.5C 1907.77,782.402 1898.93,790.569 1889.5,798C 1860.18,799.304 1830.84,799.637 1801.5,799C 1784.82,798.247 1769.15,793.913 1754.5,786C 1753.43,785.261 1752.76,784.261 1752.5,783C 1757.84,771.84 1760.67,760.006 1761,747.5C 1763.12,714.902 1749.95,690.735 1721.5,675C 1704.98,665.787 1687.32,661.787 1668.5,663C 1655.14,666.675 1642.14,671.342 1629.5,677C 1624.59,678.988 1619.59,679.488 1614.5,678.5C 1613.37,675.93 1612.53,673.264 1612,670.5C 1611.73,658.825 1611.73,647.158 1612,635.5C 1610.9,629.703 1608.74,624.369 1605.5,619.5C 1562.34,614.06 1519,610.56 1475.5,609C 1420.67,607.255 1365.84,606.089 1311,605.5C 1233.81,607.071 1156.65,609.238 1079.5,612C 1065.61,612.091 1052.28,614.758 1039.5,620C 1038.67,620.833 1037.83,621.667 1037,622.5C 1036.38,657.854 1037.05,693.187 1039,728.5C 1043.16,753.128 1046.99,777.794 1050.5,802.5C 852.46,801.53 654.46,800.197 456.5,798.5C 417.493,802.607 378.493,802.44 339.5,798C 314.791,797.824 290.124,797.324 265.5,796.5C 241.915,798.719 218.248,799.886 194.5,800C 149.166,800.038 103.833,800.038 58.5,800C 47.1667,800.667 35.8333,801.333 24.5,802C 19.0026,804.245 14.0026,807.245 9.5,811C 6.86655,812.5 4.19988,812.667 1.5,811.5C 0.500002,541.167 0.166669,270.834 0.5,0.5C 39.6702,0.831881 78.6702,0.498548 117.5,-0.5 Z"/></g>
<g><path style="opacity:0.98" fill="#010201" d="M 1672.5,690.5 C 1718.37,688.532 1738.2,710.198 1732,755.5C 1725.3,780.179 1710.64,798.179 1688,809.5C 1681.67,807.084 1675.5,804.251 1669.5,801C 1649.22,798.439 1628.89,797.606 1608.5,798.5C 1608.02,799.478 1607.36,800.311 1606.5,801C 1603.44,801.741 1600.44,801.575 1597.5,800.5C 1597.17,799.667 1596.83,798.833 1596.5,798C 1598.92,787.815 1601.42,777.648 1604,767.5C 1609.43,760.317 1615.09,753.317 1621,746.5C 1626.62,733.627 1632.62,720.961 1639,708.5C 1641.5,706 1644,703.5 1646.5,701C 1655.23,697.376 1663.89,693.876 1672.5,690.5 Z"/></g>
</svg>
